HIERARCHY
ROOT Hips
{
  OFFSET 5.84602e-005 68.8428 3.50346
  CHANNELS 6 Xposition Yposition Zposition Zrotation Xrotation Yrotation
  JOINT Spine
  {
    OFFSET 0 8.597 -4.6522
    CHANNELS 3 Zrotation Xrotation Yrotation
    JOINT Spine1
    {
      OFFSET 0 7.8454 0.4098
      CHANNELS 3 Zrotation Xrotation Yrotation
      JOINT Spine2
      {
        OFFSET 0 9.7078 -2.1609
        CHANNELS 3 Zrotation Xrotation Yrotation
        JOINT Neck
        {
          OFFSET 0 21.8761 -0.4549
          CHANNELS 3 Zrotation Xrotation Yrotation
          JOINT Head
          {
            OFFSET 0 12.3537 3.3602
            CHANNELS 3 Zrotation Xrotation Yrotation
            End Site
            {
              OFFSET 0.0001 18.9506 0.5657
            }
          }
        }
        JOINT LeftShoulder
        {
          OFFSET 2.2086 21.1115 7.2329
          CHANNELS 3 Zrotation Xrotation Yrotation
          JOINT LeftArm
          {
            OFFSET 13.1193 3.0282 -4.8998
            CHANNELS 3 Zrotation Xrotation Yrotation
            JOINT LeftForeArm
            {
              OFFSET 27.4081 -0.0973053 -0.2375
              CHANNELS 3 Zrotation Xrotation Yrotation
              JOINT LeftHand
              {
                OFFSET 22.8641 0.0662994 -0.1369
                CHANNELS 3 Zrotation Xrotation Yrotation
                JOINT LeftHandIndex1
                {
                  OFFSET 8.8614 0.775009 2.4612
                  CHANNELS 3 Zrotation Xrotation Yrotation
                  JOINT LeftHandIndex2
                  {
                    OFFSET 3.3146 -0.808304 0.5841
                    CHANNELS 3 Zrotation Xrotation Yrotation
                    JOINT LeftHandIndex3
                    {
                      OFFSET 2.2628 -0.552002 0.3989
                      CHANNELS 3 Zrotation Xrotation Yrotation
                      End Site
                      {
                        OFFSET 1.6102 -0.4807 0.2612
                      }
                    }
                  }
                }
                JOINT LeftHandMiddle1
                {
                  OFFSET 8.9937 0.895004 0.2143
                  CHANNELS 3 Zrotation Xrotation Yrotation
                  JOINT LeftHandMiddle2
                  {
                    OFFSET 4.0984 0.0113983 -0.0242
                    CHANNELS 3 Zrotation Xrotation Yrotation
                    JOINT LeftHandMiddle3
                    {
                      OFFSET 2.2716 0.00689697 -0.0138001
                      CHANNELS 3 Zrotation Xrotation Yrotation
                      End Site
                      {
                        OFFSET 2.0404 -0.1441 0.0027
                      }
                    }
                  }
                }
                JOINT LeftHandRing1
                {
                  OFFSET 8.5234 0.597198 -2.0164
                  CHANNELS 3 Zrotation Xrotation Yrotation
                  JOINT LeftHandRing2
                  {
                    OFFSET 3.7188 -0.188293 -0.2328
                    CHANNELS 3 Zrotation Xrotation Yrotation
                    JOINT LeftHandRing3
                    {
                      OFFSET 2.1191 -0.106598 -0.1332
                      CHANNELS 3 Zrotation Xrotation Yrotation
                      End Site
                      {
                        OFFSET 1.8737 -0.2304 -0.0886
                      }
                    }
                  }
                }
                JOINT LeftHandPinky1
                {
                  OFFSET 7.9094 -0.601089 -3.4825
                  CHANNELS 3 Zrotation Xrotation Yrotation
                  JOINT LeftHandPinky2
                  {
                    OFFSET 2.2874 -0.477005 -0.6314
                    CHANNELS 3 Zrotation Xrotation Yrotation
                    JOINT LeftHandPinky3
                    {
                      OFFSET 1.6774 -0.349396 -0.4633
                      CHANNELS 3 Zrotation Xrotation Yrotation
                      End Site
                      {
                        OFFSET 1.4888 -0.4091 -0.3416
                      }
                    }
                  }
                }
                JOINT LeftHandThumb1
                {
                  OFFSET 1.833 -1.3875 1.3896
                  CHANNELS 3 Zrotation Xrotation Yrotation
                  JOINT LeftHandThumb2
                  {
                    OFFSET 3.4129 -1.121 2.5732
                    CHANNELS 3 Zrotation Xrotation Yrotation
                    JOINT LeftHandThumb3
                    {
                      OFFSET 2.2474 -0.804199 1.6192
                      CHANNELS 3 Zrotation Xrotation Yrotation
                      End Site
                      {
                        OFFSET 1.6527 -0.5689 1.1317
                      }
                    }
                  }
                }
              }
            }
          }
        }
        JOINT RightShoulder
        {
          OFFSET -2.2086 21.1115 7.2329
          CHANNELS 3 Zrotation Xrotation Yrotation
          JOINT RightArm
          {
            OFFSET -13.1216 3.0287 -4.9007
            CHANNELS 3 Zrotation Xrotation Yrotation
            JOINT RightForeArm
            {
              OFFSET -27.4081 -0.0973053 -0.2375
              CHANNELS 3 Zrotation Xrotation Yrotation
              JOINT RightHand
              {
                OFFSET -22.8641 0.0664063 -0.1369
                CHANNELS 3 Zrotation Xrotation Yrotation
                JOINT RightHandIndex1
                {
                  OFFSET -8.8614 0.774994 2.4612
                  CHANNELS 3 Zrotation Xrotation Yrotation
                  JOINT RightHandIndex2
                  {
                    OFFSET -3.3146 -0.808304 0.5841
                    CHANNELS 3 Zrotation Xrotation Yrotation
                    JOINT RightHandIndex3
                    {
                      OFFSET -2.2628 -0.552002 0.3989
                      CHANNELS 3 Zrotation Xrotation Yrotation
                      End Site
                      {
                        OFFSET -1.6102 -0.4807 0.2612
                      }
                    }
                  }
                }
                JOINT RightHandMiddle1
                {
                  OFFSET -8.9937 0.894989 0.2143
                  CHANNELS 3 Zrotation Xrotation Yrotation
                  JOINT RightHandMiddle2
                  {
                    OFFSET -4.0984 0.0113983 -0.0242
                    CHANNELS 3 Zrotation Xrotation Yrotation
                    JOINT RightHandMiddle3
                    {
                      OFFSET -2.2716 0.00691223 -0.0138001
                      CHANNELS 3 Zrotation Xrotation Yrotation
                      End Site
                      {
                        OFFSET -2.0404 -0.1441 0.0027
                      }
                    }
                  }
                }
                JOINT RightHandRing1
                {
                  OFFSET -8.5234 0.597198 -2.0164
                  CHANNELS 3 Zrotation Xrotation Yrotation
                  JOINT RightHandRing2
                  {
                    OFFSET -3.7188 -0.188309 -0.2328
                    CHANNELS 3 Zrotation Xrotation Yrotation
                    JOINT RightHandRing3
                    {
                      OFFSET -2.1191 -0.106598 -0.1332
                      CHANNELS 3 Zrotation Xrotation Yrotation
                      End Site
                      {
                        OFFSET -1.8737 -0.2304 -0.0886
                      }
                    }
                  }
                }
                JOINT RightHandPinky1
                {
                  OFFSET -7.9094 -0.601105 -3.4825
                  CHANNELS 3 Zrotation Xrotation Yrotation
                  JOINT RightHandPinky2
                  {
                    OFFSET -2.2874 -0.477005 -0.6314
                    CHANNELS 3 Zrotation Xrotation Yrotation
                    JOINT RightHandPinky3
                    {
                      OFFSET -1.6774 -0.349396 -0.4633
                      CHANNELS 3 Zrotation Xrotation Yrotation
                      End Site
                      {
                        OFFSET -1.4888 -0.4091 -0.3416
                      }
                    }
                  }
                }
                JOINT RightHandThumb1
                {
                  OFFSET -1.833 -1.38751 1.3896
                  CHANNELS 3 Zrotation Xrotation Yrotation
                  JOINT RightHandThumb2
                  {
                    OFFSET -3.41299 -1.12099 2.5732
                    CHANNELS 3 Zrotation Xrotation Yrotation
                    JOINT RightHandThumb3
                    {
                      OFFSET -2.24741 -0.804108 1.6192
                      CHANNELS 3 Zrotation Xrotation Yrotation
                      End Site
                      {
                        OFFSET -1.6527 -0.5689 1.1317
                      }
                    }
                  }
                }
              }
            }
          }
        }
      }
    }
  }
  JOINT RightUpLeg
  {
    OFFSET -9.1966 3.8861 -0.7581
    CHANNELS 3 Zrotation Xrotation Yrotation
    JOINT RightLeg
    {
      OFFSET -0.7359 -41.0265 0
      CHANNELS 3 Zrotation Xrotation Yrotation
      JOINT RightFoot
      {
        OFFSET 0 -40.2855 0
        CHANNELS 3 Zrotation Xrotation Yrotation
        JOINT RightToeBase
        {
          OFFSET 0 -5.6122 11.7359
          CHANNELS 3 Zrotation Xrotation Yrotation
          End Site
          {
            OFFSET 0 0 7.8731
          }
        }
      }
    }
  }
  JOINT LeftUpLeg
  {
    OFFSET 9.1965 3.8864 -0.7581
    CHANNELS 3 Zrotation Xrotation Yrotation
    JOINT LeftLeg
    {
      OFFSET 0.7359 -41.0268 0
      CHANNELS 3 Zrotation Xrotation Yrotation
      JOINT LeftFoot
      {
        OFFSET 0 -40.2855 0
        CHANNELS 3 Zrotation Xrotation Yrotation
        JOINT LeftToeBase
        {
          OFFSET 0 -5.6122 11.7359
          CHANNELS 3 Zrotation Xrotation Yrotation
          End Site
          {
            OFFSET 0 0 7.8731
          }
        }
      }
    }
  }
}
MOTION
Frames:	6
Frame Time:	0.0333333
-0.620465 69.4225 22.9186 -0.000825723 10.6066 -179.991 0.00587045 4.40831 -0.151461 0.0235744 8.81656 -0.304735 0.0235744 8.81656 -0.304735 9.50513e-008 -21.5145 -7.79699e-007 6.20684e-008 -36.1919 -5.93518e-008 -22.7911 11.0558 33.0403 -52.2541 8.08583 -106.617 -9.14226 10.1723 -67.5128 -3.23081 -3.64909 20.4659 5.14117e-006 2.4678e-006 -4.90262e-008 1.41442e-006 2.51998e-006 -1.36224e-006 -1.59028e-015 1.59028e-015 3.18055e-015 5.14117e-006 2.4678e-006 -4.90262e-008 -0.014598 -9.0523e-005 -4.86372e-007 -3.31609e-006 2.10952e-007 -1.15979e-006 5.14117e-006 2.4678e-006 -4.90262e-008 -0.0187805 -0.00117999 5.70569e-005 4.77083e-015 -1.59028e-015 -3.18055e-015 5.14117e-006 2.4678e-006 -4.90262e-008 -0.0123128 -0.00326368 0.000680618 -4.77083e-015 -5.56597e-015 -3.18055e-015 5.14117e-006 2.4678e-006 -4.90262e-008 1.41442e-006 2.51998e-006 -1.36224e-006 -1.59028e-015 1.59028e-015 3.18055e-015 16.4768 10.3452 -20.3291 55.7711 5.43258 104.752 3.9906 2.86896 40.3849 7.79849 1.24647 -2.674 -1.54487e-031 -2.78299e-015 -3.18055e-015 3.18055e-015 1.19271e-015 -0 0 5.56597e-015 -0 -1.54487e-031 -2.78299e-015 -3.18055e-015 0.0149811 -9.6137e-005 -6.05608e-007 3.12349e-006 3.59343e-007 9.33664e-007 -1.54487e-031 -2.78299e-015 -3.18055e-015 0.0189661 -0.00118561 -6.01588e-005 4.77083e-015 1.59028e-015 3.18055e-015 -1.54487e-031 -2.78299e-015 -3.18055e-015 0.0123425 -0.00327376 -0.00068493 -3.12324e-006 -3.59011e-007 -9.33515e-007 -1.54487e-031 -2.78299e-015 -3.18055e-015 3.18055e-015 1.19271e-015 -0 0 5.56597e-015 -0 -6.49517 -8.59281 -13.2005 -2.20451 44.0551 1.5048 11.8619 -21.9326 -1.4274 -5.15022e-008 3.24657e-007 1.66557e-006 7.52063 -8.48373 13.2644 1.98427 43.8913 -1.38691 -12.6961 -22.0256 0.879427 8.75466e-007 6.93487e-009 1.70203e-006 
-0.621026 69.3094 23.6249 -0.00142918 9.2104 -179.982 0.00630149 4.09137 -0.149354 0.0234169 8.18264 -0.300314 0.0234169 8.18264 -0.300314 -6.41436e-007 -21.028 -2.07471e-006 3.92399e-009 -35.3811 -1.27145e-008 -22.9056 11.0897 33.4261 -52.2541 8.08583 -106.617 -9.25342 10.4144 -68.1127 -3.05317 -3.88572 20.9899 7.86437e-007 1.20751e-006 2.35987e-006 -5.35083e-006 -3.619e-006 3.93506e-006 1.59028e-015 2.38542e-015 -0 7.86437e-007 1.20751e-006 2.35987e-006 -0.0146025 -8.942e-005 2.73807e-006 -8.82781e-032 1.59028e-015 3.18055e-015 7.86437e-007 1.20751e-006 2.35987e-006 -0.0187885 -0.00117539 6.31897e-005 -3.30615e-006 2.0909e-007 -1.15304e-006 7.86437e-007 1.20751e-006 2.35987e-006 -0.0122439 -0.00323395 0.000672074 3.3055e-006 -2.08829e-007 1.15293e-006 7.86437e-007 1.20751e-006 2.35987e-006 -5.35083e-006 -3.619e-006 3.93506e-006 1.59028e-015 2.38542e-015 -0 16.6674 10.4649 -20.7359 55.7579 5.44997 104.723 4.16022 3.03966 41.42 7.78045 1.08535 -3.39951 3.18055e-015 -7.95139e-015 -3.18055e-015 -1.0152e-030 -9.14409e-015 -6.36111e-015 3.18055e-015 -3.57812e-015 -3.18055e-015 3.18055e-015 -7.95139e-015 -3.18055e-015 0.0150084 -9.02773e-005 3.69974e-006 -1.59028e-015 -7.95139e-016 -6.36111e-015 3.18055e-015 -7.95139e-015 -3.18055e-015 0.0190402 -0.00119441 -5.94527e-005 4.77083e-015 3.97569e-015 -3.18055e-015 3.18055e-015 -7.95139e-015 -3.18055e-015 0.0122426 -0.00323476 -0.000671327 3.18055e-015 -2.38542e-015 -0 3.18055e-015 -7.95139e-015 -3.18055e-015 -1.0152e-030 -9.14409e-015 -6.36111e-015 3.18055e-015 -3.57812e-015 -3.18055e-015 -6.51807 -10.4888 -13.3068 -2.20365 44.0376 1.48848 11.7332 -21.5344 -1.62292 -5.10925e-007 2.55764e-007 1.11041e-006 7.54446 -10.392 13.3738 1.98323 43.8719 -1.37038 -12.5617 -21.6258 1.10677 -1.91564e-008 -4.43517e-008 -1.6905e-006 
-0.621563 69.1998 24.3342 -0.00181543 7.81193 -179.974 0.00676822 3.7725 -0.147209 0.0233508 7.54496 -0.295831 0.0233509 7.54496 -0.295831 5.26806e-008 -20.5411 3.40874e-007 -8.50816e-008 -34.5687 -3.70323e-008 -23.0203 11.1227 33.8121 -52.2542 8.08582 -106.617 -9.36213 10.6578 -68.7128 -2.87328 -4.1208 21.5149 -2.51564e-006 1.41857e-006 1.20658e-006 -2.51564e-006 1.41857e-006 1.20658e-006 -2.51564e-006 1.41857e-006 1.20658e-006 -2.51564e-006 1.41857e-006 1.20658e-006 -0.014625 -8.65366e-005 -2.7195e-006 -2.51581e-006 1.41842e-006 1.20676e-006 -2.51564e-006 1.41857e-006 1.20658e-006 -0.0187487 -0.00117646 6.72202e-005 -2.51585e-006 1.41836e-006 1.20684e-006 -2.51564e-006 1.41857e-006 1.20658e-006 -0.0121813 -0.00322156 0.000669942 -2.51574e-006 1.41842e-006 1.20681e-006 -2.51564e-006 1.41857e-006 1.20658e-006 -2.51564e-006 1.41857e-006 1.20658e-006 -2.51564e-006 1.41857e-006 1.20658e-006 16.859 10.5832 -21.1433 55.7447 5.46739 104.695 4.32691 3.21357 42.4559 7.76035 0.924408 -4.12537 1.59028e-015 -6.75868e-015 9.54166e-015 6.36111e-015 6.75868e-015 9.54166e-015 -2.11868e-030 6.36111e-015 1.90833e-014 1.59028e-015 -6.75868e-015 9.54166e-015 0.0150324 -8.76978e-005 -6.43834e-006 -4.19321e-031 7.55382e-015 3.18055e-015 1.59028e-015 -6.75868e-015 9.54166e-015 0.0190164 -0.00119541 -5.95844e-005 1.59028e-015 7.15625e-015 1.59028e-014 1.59028e-015 -6.75868e-015 9.54166e-015 0.0122115 -0.00323579 -0.00066729 -1.59028e-015 -5.56597e-015 3.18055e-015 1.59028e-015 -6.75868e-015 9.54166e-015 6.36111e-015 6.75868e-015 9.54166e-015 -2.11868e-030 6.36111e-015 1.90833e-014 -6.54493 -12.3903 -13.415 -2.20264 44.0201 1.47226 11.6063 -21.1361 -1.81697 3.53352e-008 -2.10006e-007 1.42897e-008 7.57236 -12.3064 13.4851 1.98216 43.8529 -1.35399 -12.4292 -21.2259 1.3325 1.33214e-008 7.87467e-008 5.29444e-009 
-0.62208 69.094 25.0465 -0.0019702 6.41156 -179.965 0.00727063 3.45207 -0.145027 0.0233774 6.90412 -0.291289 0.0233774 6.90412 -0.291289 8.50879e-008 -20.0538 -1.0092e-006 -4.60391e-008 -33.7547 -6.77238e-008 -23.1353 11.1551 34.1983 -52.2541 8.08582 -106.617 -9.46835 10.9023 -69.3132 -2.69113 -4.35428 22.0409 2.51359e-006 -1.42056e-006 -1.20628e-006 3.93415e-006 1.09302e-006 -2.57436e-006 2.51359e-006 -1.42056e-006 -1.20628e-006 2.51359e-006 -1.42056e-006 -1.20628e-006 -0.014552 -8.43874e-005 -3.04555e-006 2.51376e-006 -1.42041e-006 -1.20646e-006 2.51359e-006 -1.42056e-006 -1.20628e-006 -0.0187888 -0.00118115 6.04992e-005 2.5138e-006 -1.42035e-006 -1.20654e-006 2.51359e-006 -1.42056e-006 -1.20628e-006 -0.0123352 -0.00326176 0.000680704 2.51369e-006 -1.42041e-006 -1.20651e-006 2.51359e-006 -1.42056e-006 -1.20628e-006 3.93415e-006 1.09302e-006 -2.57436e-006 2.51359e-006 -1.42056e-006 -1.20628e-006 17.0515 10.7002 -21.5513 55.7315 5.48479 104.666 4.49058 3.39062 43.4922 7.73822 0.763667 -4.85152 1.59028e-015 5.56597e-015 -0 -6.36111e-015 -8.74653e-015 3.18055e-015 -1.59028e-015 -3.97569e-015 -0 1.59028e-015 5.56597e-015 -0 0.0149963 -8.83388e-005 -7.81976e-006 -6.36111e-015 -8.34896e-015 -3.18055e-015 1.59028e-015 5.56597e-015 -0 0.0189719 -0.00119405 -6.08099e-005 -7.95139e-015 5.1684e-015 3.18055e-015 1.59028e-015 5.56597e-015 -0 0.012192 -0.00322874 -0.000671057 3.18055e-015 1.35174e-014 -9.54166e-015 1.59028e-015 5.56597e-015 -0 -6.36111e-015 -8.74653e-015 3.18055e-015 -1.59028e-015 -3.97569e-015 -0 -6.57579 -14.2971 -13.5252 -2.20174 44.0031 1.45611 11.481 -20.7375 -2.00959 1.76489e-008 -1.05007e-007 7.13875e-009 7.60437 -14.2262 13.5984 1.98124 43.8345 -1.33766 -12.2987 -20.8255 1.55669 8.74958e-009 -3.40664e-008 1.68524e-006 
-0.622572 68.9921 25.7615 -0.00192158 5.0097 -179.956 0.00780879 3.13045 -0.14281 0.0234982 6.26085 -0.286691 0.0234982 6.26085 -0.286691 -2.97865e-007 -19.5664 -1.1651e-006 2.80274e-008 -32.939 2.14431e-007 -23.2506 11.1867 34.5846 -52.2541 8.08582 -106.617 -9.57207 11.148 -69.9137 -2.50674 -4.58612 22.5679 3.71747e-006 -5.24555e-008 1.30573e-006 -7.60689e-007 -1.21775e-006 -2.34235e-006 8.41227e-006 2.25437e-006 1.07214e-006 3.71747e-006 -5.24555e-008 1.30573e-006 -0.0145787 -8.47158e-005 -2.78303e-006 5.14019e-006 2.45915e-006 -6.40297e-008 3.71747e-006 -5.24555e-008 1.30573e-006 -0.0187618 -0.00118069 6.32313e-005 1.86602e-006 2.664e-006 -1.20039e-006 3.71747e-006 -5.24555e-008 1.30573e-006 -0.0122617 -0.00324928 0.000671795 1.86659e-006 2.66373e-006 -1.20052e-006 3.71747e-006 -5.24555e-008 1.30573e-006 -7.60689e-007 -1.21775e-006 -2.34235e-006 8.41227e-006 2.25437e-006 1.07214e-006 17.245 10.8158 -21.9598 55.7184 5.50222 104.637 4.65115 3.57071 44.5288 7.714 0.603169 -5.57795 -7.06366e-006 6.25072e-007 1.56627e-006 -4.23597e-006 1.19591e-007 -1.61502e-006 -2.4815e-006 -1.4932e-006 1.18096e-006 -7.06366e-006 6.25072e-007 1.56627e-006 0.0150593 -8.76796e-005 -1.04973e-006 -2.48168e-006 -1.49305e-006 1.18115e-006 -7.06366e-006 6.25072e-007 1.56627e-006 0.0189391 -0.00118363 -5.98287e-005 -2.48172e-006 -1.493e-006 1.18123e-006 -7.06366e-006 6.25072e-007 1.56627e-006 0.0122784 -0.0032387 -0.000675801 -2.48161e-006 -1.49305e-006 1.18119e-006 -7.06366e-006 6.25072e-007 1.56627e-006 -4.23597e-006 1.19591e-007 -1.61502e-006 -2.4815e-006 -1.4932e-006 1.18096e-006 -6.61098 -16.2065 -13.6377 -2.20045 43.9851 1.44003 11.3574 -20.3386 -2.20083 2.45525e-008 -9.58501e-008 1.69445e-006 7.64076 -16.1503 13.7141 1.98041 43.8168 -1.32146 -12.17 -20.4249 1.77933 4.43764e-009 2.62497e-008 1.76151e-009 
-0.623041 68.8941 26.4791 -0.00165696 3.60676 -179.947 0.00838258 2.80791 -0.140559 0.0237143 5.6158 -0.282038 0.0237143 5.61581 -0.282038 -6.60768e-007 -19.0786 -1.87753e-006 8.75124e-008 -32.1219 1.71793e-007 -23.366 11.2175 34.971 -52.2541 8.08582 -106.617 -9.67325 11.3948 -70.5144 -2.32016 -4.81628 23.0959 7.13167e-006 -1.17429e-006 4.4409e-007 3.71504e-006 -5.24157e-008 1.30426e-006 -1.42445e-006 -2.50965e-006 1.37204e-006 7.13167e-006 -1.17429e-006 4.4409e-007 -0.0146099 -8.65196e-005 -4.00459e-007 -4.68736e-006 -2.30599e-006 2.40095e-007 7.13167e-006 -1.17429e-006 4.4409e-007 -0.0187547 -0.00117547 6.08861e-005 -4.68774e-006 -2.30609e-006 2.40061e-007 7.13167e-006 -1.17429e-006 4.4409e-007 -0.01226 -0.0032442 0.000677081 -1.4243e-006 -2.50975e-006 1.3718e-006 7.13167e-006 -1.17429e-006 4.4409e-007 3.71504e-006 -5.24157e-008 1.30426e-006 -1.42445e-006 -2.50965e-006 1.37204e-006 17.4394 10.9301 -22.369 55.7052 5.51964 104.608 4.80851 3.75372 45.5656 7.68779 0.44296 -6.30456 2.48266e-006 1.49202e-006 -1.17728e-006 -1.49202e-006 2.48266e-006 1.37374e-006 -1.49202e-006 2.48266e-006 1.37374e-006 2.48266e-006 1.49202e-006 -1.17728e-006 0.0149812 -9.11748e-005 1.29382e-006 -1.49186e-006 2.48284e-006 1.37342e-006 2.48266e-006 1.49202e-006 -1.17728e-006 0.0189805 -0.00119079 -6.08865e-005 -1.49181e-006 2.48287e-006 1.37334e-006 2.48266e-006 1.49202e-006 -1.17728e-006 0.0122307 -0.00323366 -0.000677111 -1.49187e-006 2.48276e-006 1.37351e-006 2.48266e-006 1.49202e-006 -1.17728e-006 -1.49202e-006 2.48266e-006 1.37374e-006 -1.49202e-006 2.48266e-006 1.37374e-006 -6.6504 -18.1207 -13.7526 -2.19985 43.9694 1.42408 11.2355 -19.9396 -2.39066 -1.63671e-006 -4.82624e-007 1.69236e-006 7.68171 -18.077 13.8324 1.97954 43.7991 -1.30534 -12.0433 -20.024 2.00047 -1.55259e-008 -9.18752e-008 -6.16406e-009 
